<svg preserveAspectRatio="none" data-bbox="0.81 0.199 452.641 26.85" xmlns="http://www.w3.org/2000/svg" viewBox="0 0 454 28" height="28" width="454" data-type="ugc" role="presentation" aria-hidden="true" aria-label="">
    <g>
        <path fill="url(#535fac3a-bdc0-4c65-bf9e-6a1699d0d3cc_comp-lrxkebf0)" d="m17.37 22.069-.15-2.88h-.06c-1.32 2.22-3.33 3.33-6.03 3.33-3.14 0-5.65-1.04-7.53-3.12-1.86-2.08-2.79-4.74-2.79-7.98 0-3.68 1.17-6.6 3.51-8.76 1.8-1.64 4.1-2.46 6.9-2.46 2.62 0 4.71.65 6.27 1.95 1.58 1.3 2.55 3.04 2.91 5.22h-4.26c-.26-1.08-.8-1.94-1.62-2.58-.82-.66-1.89-.99-3.21-.99-1.94 0-3.44.71-4.5 2.13-1.04 1.42-1.56 3.25-1.56 5.49 0 2.22.54 4.04 1.62 5.46 1.1 1.42 2.56 2.13 4.38 2.13 1.6 0 2.92-.49 3.96-1.47 1.04-1 1.56-2.13 1.56-3.39v-.12h-5.16v-3.36h9.03v11.4h-3.27Zm19.061-1.86c-1.5 1.54-3.43 2.31-5.79 2.31s-4.29-.77-5.79-2.31c-1.5-1.56-2.25-3.5-2.25-5.82 0-2.32.75-4.25 2.25-5.79 1.5-1.56 3.43-2.34 5.79-2.34s4.29.78 5.79 2.34c1.5 1.54 2.25 3.47 2.25 5.79s-.75 4.26-2.25 5.82Zm-5.79-.81c1.22 0 2.17-.45 2.85-1.35.7-.92 1.05-2.14 1.05-3.66s-.35-2.74-1.05-3.66c-.68-.92-1.63-1.38-2.85-1.38-1.24 0-2.2.46-2.88 1.38-.68.9-1.02 2.12-1.02 3.66 0 1.52.34 2.74 1.02 3.66.68.9 1.64 1.35 2.88 1.35Zm23.017.81c-1.5 1.54-3.43 2.31-5.79 2.31s-4.29-.77-5.79-2.31c-1.5-1.56-2.25-3.5-2.25-5.82 0-2.32.75-4.25 2.25-5.79 1.5-1.56 3.43-2.34 5.79-2.34s4.29.78 5.79 2.34c1.5 1.54 2.25 3.47 2.25 5.79s-.75 4.26-2.25 5.82Zm-5.79-.81c1.22 0 2.17-.45 2.85-1.35.7-.92 1.05-2.14 1.05-3.66s-.35-2.74-1.05-3.66c-.68-.92-1.63-1.38-2.85-1.38-1.24 0-2.2.46-2.88 1.38-.68.9-1.02 2.12-1.02 3.66 0 1.52.34 2.74 1.02 3.66.68.9 1.64 1.35 2.88 1.35Zm15.696 3.12c-1.94 0-3.51-.73-4.71-2.19-1.2-1.48-1.8-3.46-1.8-5.94 0-2.4.61-4.35 1.83-5.85 1.24-1.52 2.82-2.28 4.74-2.28 1.92 0 3.37.76 4.35 2.28h.09V.619h4.08v21.45h-3.93v-2.01h-.06c-1 1.64-2.53 2.46-4.59 2.46Zm.9-3.42c1.2 0 2.11-.41 2.73-1.23.64-.82.96-1.95.96-3.39 0-3.28-1.19-4.92-3.57-4.92-1.1 0-1.94.44-2.52 1.32-.58.88-.87 2.05-.87 3.51 0 1.5.28 2.66.84 3.48.58.82 1.39 1.23 2.43 1.23Zm15.432 2.97V.619h4.08v21.45h-4.08Zm20.416 0h-3.93v-1.8h-.09c-.56.76-1.18 1.32-1.86 1.68-.66.36-1.51.54-2.55.54-1.68 0-2.99-.5-3.93-1.5s-1.41-2.35-1.41-4.05V6.679h4.05v9.57c0 1.86.85 2.79 2.55 2.79.94 0 1.69-.32 2.25-.96.56-.64.84-1.48.84-2.52v-8.88h4.08v15.39Zm9.779.45c-2.38 0-4.29-.77-5.73-2.31-1.44-1.54-2.16-3.48-2.16-5.82 0-2.34.7-4.28 2.1-5.82 1.42-1.54 3.28-2.31 5.58-2.31 1.94 0 3.52.51 4.74 1.53 1.22 1.02 1.97 2.39 2.25 4.11h-3.99c-.14-.7-.46-1.27-.96-1.71-.5-.44-1.12-.66-1.86-.66-1.2 0-2.12.43-2.76 1.29-.64.86-.96 2.05-.96 3.57 0 1.5.31 2.69.93 3.57.62.86 1.53 1.29 2.73 1.29 1.78 0 2.81-.87 3.09-2.61h3.93c-.14 1.7-.83 3.11-2.07 4.23-1.24 1.1-2.86 1.65-4.86 1.65Zm18.849-.45-4.32-7.02-1.77 1.83v5.19h-4.05V.619h4.05v11.88l5.46-5.82h4.89l-5.67 5.85 6.36 9.54h-4.95Zm6.174 4.98v-1.47c1.44-.74 2.16-1.91 2.16-3.51h-2.19v-4.35h4.38v4.11c0 1.44-.42 2.61-1.26 3.51-.82.92-1.85 1.49-3.09 1.71Zm21.472-4.98c-.2-.26-.36-.83-.48-1.71h-.06c-.44.66-1 1.17-1.68 1.53-.68.36-1.63.54-2.85.54-1.62 0-2.92-.41-3.9-1.23-.98-.82-1.47-1.98-1.47-3.48 0-1.56.54-2.7 1.62-3.42 1.08-.74 2.6-1.25 4.56-1.53 1.44-.2 2.42-.4 2.94-.6.52-.22.78-.6.78-1.14 0-.56-.22-1-.66-1.32-.44-.34-1.08-.51-1.92-.51-1.86 0-2.85.72-2.97 2.16h-3.63c.06-1.46.65-2.67 1.77-3.63s2.74-1.44 4.86-1.44c4.32 0 6.48 1.89 6.48 5.67v7.83c0 1.16.18 1.87.54 2.13v.15h-3.93Zm-4.08-2.49c1.12 0 2-.29 2.64-.87.66-.58.99-1.27.99-2.07v-2.31c-.44.26-1.39.56-2.85.9-1.16.26-1.98.56-2.46.9-.48.32-.72.82-.72 1.5 0 1.3.8 1.95 2.4 1.95Zm14.054-12.9v2.1h.09c1.06-1.68 2.58-2.52 4.56-2.52 1.58 0 2.86.54 3.84 1.62.98 1.06 1.47 2.44 1.47 4.14v10.05h-4.08v-9.45c0-.84-.24-1.52-.72-2.04-.46-.52-1.11-.78-1.95-.78-.9 0-1.65.33-2.25.99-.58.66-.87 1.51-.87 2.55v8.73h-4.08V6.679h3.99Zm18.235 15.84c-1.94 0-3.51-.73-4.71-2.19-1.2-1.48-1.8-3.46-1.8-5.94 0-2.4.61-4.35 1.83-5.85 1.24-1.52 2.82-2.28 4.74-2.28 1.92 0 3.37.76 4.35 2.28h.09V.619h4.08v21.45h-3.93v-2.01h-.06c-1 1.64-2.53 2.46-4.59 2.46Zm.9-3.42c1.2 0 2.11-.41 2.73-1.23.64-.82.96-1.95.96-3.39 0-3.28-1.19-4.92-3.57-4.92-1.1 0-1.94.44-2.52 1.32-.58.88-.87 2.05-.87 3.51 0 1.5.28 2.66.84 3.48.58.82 1.39 1.23 2.43 1.23Zm18.671 2.97-4.5-15.39h4.05l1.86 7.14.69 2.88h.06c.22-1.1.44-2.07.66-2.91l1.92-7.11h3.48l2.01 7.11.72 2.91h.06c.24-1.08.47-2.04.69-2.88l1.95-7.14h3.96l-4.59 15.39h-3.72l-2.04-7.56-.69-2.67h-.06c-.26.96-.5 1.85-.72 2.67l-2.1 7.56h-3.69Zm25.844.45c-2.48 0-4.43-.76-5.85-2.28-1.42-1.54-2.13-3.5-2.13-5.88 0-2.3.71-4.22 2.13-5.76 1.42-1.56 3.24-2.34 5.46-2.34 2.42 0 4.29.84 5.61 2.52 1.32 1.68 1.98 3.93 1.98 6.75h-11.16c.16 1.22.57 2.17 1.23 2.85.66.66 1.56.99 2.7.99 1.5 0 2.49-.63 2.97-1.89h4.02c-.3 1.44-1.06 2.64-2.28 3.6-1.22.96-2.78 1.44-4.68 1.44Zm-.33-13.11c-1.98 0-3.17 1.1-3.57 3.3h6.84c-.06-.98-.39-1.77-.99-2.37-.6-.62-1.36-.93-2.28-.93Zm9.479 12.66V.619h4.08v21.45h-4.08Zm13.906.45c-2.38 0-4.29-.77-5.73-2.31-1.44-1.54-2.16-3.48-2.16-5.82 0-2.34.7-4.28 2.1-5.82 1.42-1.54 3.28-2.31 5.58-2.31 1.94 0 3.52.51 4.74 1.53 1.22 1.02 1.97 2.39 2.25 4.11h-3.99c-.14-.7-.46-1.27-.96-1.71-.5-.44-1.12-.66-1.86-.66-1.2 0-2.12.43-2.76 1.29-.64.86-.96 2.05-.96 3.57 0 1.5.31 2.69.93 3.57.62.86 1.53 1.29 2.73 1.29 1.78 0 2.81-.87 3.09-2.61h3.93c-.14 1.7-.83 3.11-2.07 4.23-1.24 1.1-2.86 1.65-4.86 1.65Zm21.789-2.31c-1.5 1.54-3.43 2.31-5.79 2.31s-4.29-.77-5.79-2.31c-1.5-1.56-2.25-3.5-2.25-5.82 0-2.32.75-4.25 2.25-5.79 1.5-1.56 3.43-2.34 5.79-2.34s4.29.78 5.79 2.34c1.5 1.54 2.25 3.47 2.25 5.79s-.75 4.26-2.25 5.82Zm-5.79-.81c1.22 0 2.17-.45 2.85-1.35.7-.92 1.05-2.14 1.05-3.66s-.35-2.74-1.05-3.66c-.68-.92-1.63-1.38-2.85-1.38-1.24 0-2.2.46-2.88 1.38-.68.9-1.02 2.12-1.02 3.66 0 1.52.34 2.74 1.02 3.66.68.9 1.64 1.35 2.88 1.35Zm9.937 2.67V6.679h3.93v2.07h.09c.98-1.66 2.47-2.49 4.47-2.49.96 0 1.81.25 2.55.75.76.48 1.33 1.13 1.71 1.95h.06c1.12-1.8 2.66-2.7 4.62-2.7 1.6 0 2.84.49 3.72 1.47.9.96 1.35 2.29 1.35 3.99v10.35h-4.08v-9.66c0-1.76-.79-2.64-2.37-2.64-.86 0-1.54.31-2.04.93-.48.6-.72 1.41-.72 2.43v8.94h-4.08v-9.66c0-1.76-.79-2.64-2.37-2.64-.82 0-1.49.31-2.01.93-.5.6-.75 1.41-.75 2.43v8.94h-4.08Zm32.249.45c-2.48 0-4.43-.76-5.85-2.28-1.42-1.54-2.13-3.5-2.13-5.88 0-2.3.71-4.22 2.13-5.76 1.42-1.56 3.24-2.34 5.46-2.34 2.42 0 4.29.84 5.61 2.52 1.32 1.68 1.98 3.93 1.98 6.75h-11.16c.16 1.22.57 2.17 1.23 2.85.66.66 1.56.99 2.7.99 1.5 0 2.49-.63 2.97-1.89h4.02c-.3 1.44-1.06 2.64-2.28 3.6-1.22.96-2.78 1.44-4.68 1.44Zm-.33-13.11c-1.98 0-3.17 1.1-3.57 3.3h6.84c-.06-.98-.39-1.77-.99-2.37-.6-.62-1.36-.93-2.28-.93Zm13.558-.03v-2.7h2.13v-4.8h3.99v4.8h2.64v2.7h-2.64v8.16c0 1.02.51 1.53 1.53 1.53l1.2-.03v3c-.62.04-1.47.06-2.55.06-1.18 0-2.17-.28-2.97-.84-.8-.58-1.2-1.53-1.2-2.85v-9.03h-2.13Zm23.794 10.83c-1.5 1.54-3.43 2.31-5.79 2.31s-4.29-.77-5.79-2.31c-1.5-1.56-2.25-3.5-2.25-5.82 0-2.32.75-4.25 2.25-5.79 1.5-1.56 3.43-2.34 5.79-2.34s4.29.78 5.79 2.34c1.5 1.54 2.25 3.47 2.25 5.79s-.75 4.26-2.25 5.82Zm-5.79-.81c1.22 0 2.17-.45 2.85-1.35.7-.92 1.05-2.14 1.05-3.66s-.35-2.74-1.05-3.66c-.68-.92-1.63-1.38-2.85-1.38-1.24 0-2.2.46-2.88 1.38-.68.9-1.02 2.12-1.02 3.66 0 1.52.34 2.74 1.02 3.66.68.9 1.64 1.35 2.88 1.35Zm23.616 3.15c-2.9 0-5.15-.61-6.75-1.83-1.6-1.24-2.44-3-2.52-5.28h4.26c.14 1.28.59 2.2 1.35 2.76.78.56 1.94.84 3.48.84 1.22 0 2.22-.22 3-.66.78-.46 1.17-1.16 1.17-2.1 0-.34-.05-.64-.15-.9-.08-.28-.26-.52-.54-.72-.28-.22-.52-.39-.72-.51-.2-.14-.57-.28-1.11-.42-.54-.16-.95-.27-1.23-.33-.28-.08-.8-.21-1.56-.39-.92-.22-1.68-.41-2.28-.57-.58-.16-1.23-.41-1.95-.75-.7-.34-1.26-.71-1.68-1.11-.4-.42-.74-.96-1.02-1.62-.28-.68-.42-1.45-.42-2.31 0-2.06.75-3.64 2.25-4.74 1.52-1.12 3.51-1.68 5.97-1.68 2.44 0 4.39.58 5.85 1.74 1.46 1.16 2.27 2.81 2.43 4.95h-4.17c-.12-1.04-.56-1.84-1.32-2.4-.74-.56-1.68-.84-2.82-.84-1.18 0-2.12.23-2.82.69-.7.46-1.05 1.07-1.05 1.83 0 .82.34 1.42 1.02 1.8.7.38 1.92.76 3.66 1.14 1.04.22 1.89.43 2.55.63.66.18 1.37.45 2.13.81.78.34 1.38.72 1.8 1.14.44.42.8.98 1.08 1.68.3.68.45 1.47.45 2.37 0 2.12-.77 3.78-2.31 4.98-1.54 1.2-3.55 1.8-6.03 1.8Zm23.688-2.34c-1.5 1.54-3.43 2.31-5.79 2.31s-4.29-.77-5.79-2.31c-1.5-1.56-2.25-3.5-2.25-5.82 0-2.32.75-4.25 2.25-5.79 1.5-1.56 3.43-2.34 5.79-2.34s4.29.78 5.79 2.34c1.5 1.54 2.25 3.47 2.25 5.79s-.75 4.26-2.25 5.82Zm-5.79-.81c1.22 0 2.17-.45 2.85-1.35.7-.92 1.05-2.14 1.05-3.66s-.35-2.74-1.05-3.66c-.68-.92-1.63-1.38-2.85-1.38-1.24 0-2.2.46-2.88 1.38-.68.9-1.02 2.12-1.02 3.66 0 1.52.34 2.74 1.02 3.66.68.9 1.64 1.35 2.88 1.35Zm9.997 2.67V.619h4.08v21.45h-4.08Zm16.456 0c-.2-.26-.36-.83-.48-1.71h-.06c-.44.66-1 1.17-1.68 1.53-.68.36-1.63.54-2.85.54-1.62 0-2.92-.41-3.9-1.23-.98-.82-1.47-1.98-1.47-3.48 0-1.56.54-2.7 1.62-3.42 1.08-.74 2.6-1.25 4.56-1.53 1.44-.2 2.42-.4 2.94-.6.52-.22.78-.6.78-1.14 0-.56-.22-1-.66-1.32-.44-.34-1.08-.51-1.92-.51-1.86 0-2.85.72-2.97 2.16h-3.63c.06-1.46.65-2.67 1.77-3.63s2.74-1.44 4.86-1.44c4.32 0 6.48 1.89 6.48 5.67v7.83c0 1.16.18 1.87.54 2.13v.15h-3.93Zm-4.08-2.49c1.12 0 2-.29 2.64-.87.66-.58.99-1.27.99-2.07v-2.31c-.44.26-1.39.56-2.85.9-1.16.26-1.98.56-2.46.9-.48.32-.72.82-.72 1.5 0 1.3.8 1.95 2.4 1.95Zm14.054-12.9v2.1h.09c1.06-1.68 2.58-2.52 4.56-2.52 1.58 0 2.86.54 3.84 1.62.98 1.06 1.47 2.44 1.47 4.14v10.05h-4.08v-9.45c0-.84-.24-1.52-.72-2.04-.46-.52-1.11-.78-1.95-.78-.9 0-1.65.33-2.25.99-.58.66-.87 1.51-.87 2.55v8.73h-4.08V6.679h3.99Zm22.164 15.39c-.2-.26-.36-.83-.48-1.71h-.06c-.44.66-1 1.17-1.68 1.53-.68.36-1.63.54-2.85.54-1.62 0-2.92-.41-3.9-1.23-.98-.82-1.47-1.98-1.47-3.48 0-1.56.54-2.7 1.62-3.42 1.08-.74 2.6-1.25 4.56-1.53 1.44-.2 2.42-.4 2.94-.6.52-.22.78-.6.78-1.14 0-.56-.22-1-.66-1.32-.44-.34-1.08-.51-1.92-.51-1.86 0-2.85.72-2.97 2.16h-3.63c.06-1.46.65-2.67 1.77-3.63s2.74-1.44 4.86-1.44c4.32 0 6.48 1.89 6.48 5.67v7.83c0 1.16.18 1.87.54 2.13v.15h-3.93Zm-4.08-2.49c1.12 0 2-.29 2.64-.87.66-.58.99-1.27.99-2.07v-2.31c-.44.26-1.39.56-2.85.9-1.16.26-1.98.56-2.46.9-.48.32-.72.82-.72 1.5 0 1.3.8 1.95 2.4 1.95Zm11.564-3.78-1.14-10.44V.619h4.26v4.74l-1.14 10.44h-1.98Zm-1.2 6.27v-4.35h4.38v4.35h-4.38Z"></path>
        <defs fill="none">
            <linearGradient gradientUnits="userSpaceOnUse" y2="-34.512" x2="5.154" y1="30.067" x1="536.916" id="535fac3a-bdc0-4c65-bf9e-6a1699d0d3cc_comp-lrxkebf0">
                <stop stop-color="#1EF4A4"></stop>
                <stop stop-color="#9946FF" offset="1"></stop>
            </linearGradient>
        </defs>
    </g>
</svg>
