<svg preserveAspectRatio="none" data-bbox="0 0.394 342 52" xmlns="http://www.w3.org/2000/svg" viewBox="0 0 342 53" height="53" width="342" data-type="ugc" role="presentation" aria-hidden="true" aria-label="">
    <g>
        <path fill="url(#528927d5-6591-48f0-b437-0e14033453f6_comp-ls7gn80n)" d="M49.461 10.795V.394h-39.2a10.227 10.227 0 0 0-7.256 3.024A10.36 10.36 0 0 0 0 10.719v10.553c0 2.739 1.081 5.365 3.005 7.301a10.228 10.228 0 0 0 7.255 3.025h31.075v10.394H.74v10.402h40.67c2.72 0 5.33-1.088 7.255-3.025a10.359 10.359 0 0 0 3.005-7.301V31.522c0-2.739-1.081-5.365-3.005-7.301a10.227 10.227 0 0 0-7.255-3.025H10.334V10.795H49.46Z"></path>
        <path fill="url(#0d7d9747-6079-43f6-b1d9-0d8bfe493b78_comp-ls7gn80n)" d="M60.139 10.72v31.348c0 2.739 1.08 5.365 3.005 7.301a10.227 10.227 0 0 0 7.255 3.025h31.15c2.721 0 5.331-1.088 7.255-3.025a10.36 10.36 0 0 0 3.005-7.301V10.719a10.36 10.36 0 0 0-3.005-7.301 10.227 10.227 0 0 0-7.255-3.024h-31.15a10.223 10.223 0 0 0-7.255 3.024 10.359 10.359 0 0 0-3.005 7.301Zm41.334 31.272h-31.02V10.795h31l.02 31.197Z"></path>
        <path fill="url(#5df01801-6966-444d-95a4-3c3a8552b24a_comp-ls7gn80n)" d="M170.056 10.72v41.674h10.337V35.308h30.274v17.086h10.327V10.719c0-2.738-1.08-5.365-3.004-7.301a10.227 10.227 0 0 0-7.255-3.024h-30.418a10.23 10.23 0 0 0-7.256 3.024 10.36 10.36 0 0 0-3.005 7.301Zm40.611 14.187h-30.268V10.795h30.274l-.006 14.112Z"></path>
        <path fill="url(#d2cbf717-962d-4efc-b702-37bf39a4c150_comp-ls7gn80n)" d="M291.081 10.72v41.674h10.315V35.308h30.267v17.086H342V10.719a10.36 10.36 0 0 0-3.005-7.301 10.23 10.23 0 0 0-7.256-3.024h-30.398c-2.72 0-5.331 1.087-7.255 3.024a10.36 10.36 0 0 0-3.005 7.301Zm40.597 14.187h-30.282V10.795h30.267l.015 14.112Z"></path>
        <path fill="url(#d10872c5-59a9-4172-b259-b9dfa1cb852c_comp-ls7gn80n)" d="M271.557.394v41.598h-4.105L252.596 4.723a6.884 6.884 0 0 0-2.514-3.144 6.815 6.815 0 0 0-3.834-1.185h-9.201a6.819 6.819 0 0 0-4.836 2.016 6.906 6.906 0 0 0-2.004 4.867v45.117h10.309v-41.6h4.138L259.47 48.07a6.88 6.88 0 0 0 2.518 3.143 6.813 6.813 0 0 0 3.836 1.18h9.201a6.817 6.817 0 0 0 4.836-2.016 6.906 6.906 0 0 0 2.004-4.867V.394h-10.308Z"></path>
        <path fill="url(#8cef882d-44b2-4da2-9de9-1625e777bc06_comp-ls7gn80n)" d="M131.333 41.992V.394h-10.321v41.674a10.36 10.36 0 0 0 3.005 7.301 10.227 10.227 0 0 0 7.255 3.025h31.074V41.992h-31.013Z"></path>
        <defs fill="none">
            <linearGradient gradientUnits="userSpaceOnUse" y2="26.973" x2="-.414" y1="52.391" x1="402.687" id="528927d5-6591-48f0-b437-0e14033453f6_comp-ls7gn80n">
                <stop stop-color="#1EF4A4"></stop>
                <stop stop-color="#9946FF" offset="1"></stop>
            </linearGradient>
            <linearGradient gradientUnits="userSpaceOnUse" y2="26.973" x2="-.414" y1="52.391" x1="402.687" id="0d7d9747-6079-43f6-b1d9-0d8bfe493b78_comp-ls7gn80n">
                <stop stop-color="#1EF4A4"></stop>
                <stop stop-color="#9946FF" offset="1"></stop>
            </linearGradient>
            <linearGradient gradientUnits="userSpaceOnUse" y2="26.973" x2="-.414" y1="52.391" x1="402.687" id="5df01801-6966-444d-95a4-3c3a8552b24a_comp-ls7gn80n">
                <stop stop-color="#1EF4A4"></stop>
                <stop stop-color="#9946FF" offset="1"></stop>
            </linearGradient>
            <linearGradient gradientUnits="userSpaceOnUse" y2="26.973" x2="-.414" y1="52.391" x1="402.687" id="d2cbf717-962d-4efc-b702-37bf39a4c150_comp-ls7gn80n">
                <stop stop-color="#1EF4A4"></stop>
                <stop stop-color="#9946FF" offset="1"></stop>
            </linearGradient>
            <linearGradient gradientUnits="userSpaceOnUse" y2="26.973" x2="-.414" y1="52.391" x1="402.687" id="d10872c5-59a9-4172-b259-b9dfa1cb852c_comp-ls7gn80n">
                <stop stop-color="#1EF4A4"></stop>
                <stop stop-color="#9946FF" offset="1"></stop>
            </linearGradient>
            <linearGradient gradientUnits="userSpaceOnUse" y2="26.973" x2="-.414" y1="52.391" x1="402.687" id="8cef882d-44b2-4da2-9de9-1625e777bc06_comp-ls7gn80n">
                <stop stop-color="#1EF4A4"></stop>
                <stop stop-color="#9946FF" offset="1"></stop>
            </linearGradient>
        </defs>
    </g>
</svg>